<?xml version="1.0" encoding="UTF-8"?>
<svg id="Layer_1" data-name="Layer 1" xmlns="http://www.w3.org/2000/svg" viewBox="0 0 178.78 73.46">
  <defs>
    <style>
      .cls-1 {
        fill: #231f20;
        stroke-width: 0px;
      }
    </style>
  </defs>
  <g>
    <path class="cls-1" d="M26.36,22.45c0,1.74-.61,3.27-1.83,4.58l-1.3,1.41c-1.18,1.27-2.62,1.9-4.34,1.9h-.15l-11.36-.26c-1.04-.02-1.56-.55-1.56-1.58V4.63c0-1.14.58-1.72,1.73-1.72l11.3.03c1.92,0,3.52.34,4.8,1.01,1.62.86,2.44,2.16,2.44,3.89v2.59c0,1.76-.63,3.27-1.89,4.53l-.82.82,1.06,1.01c1.28,1.22,1.92,2.72,1.92,4.49v1.15ZM18.06,21.68c.01-.09.02-.18.02-.26,0-1.01-.55-1.51-1.65-1.51h-3.81c-.34,0-.51.18-.51.53v4.46c0,.31.17.48.51.51l3.05.27c.13.01.25.02.36.02,1.12,0,1.73-.53,1.82-1.6l.21-2.44ZM18.35,12.32v-1.06c0-.69-.35-1.03-1.05-1.03h-3.81c-.32,0-.49.16-.51.48l-.27,3.21c-.01.07-.02.14-.02.21,0,.56.24.84.72.84.11,0,.25-.02.39-.05l2.92-.65c1.09-.24,1.63-.89,1.63-1.94Z"/>
    <path class="cls-1" d="M41.8,24.31c.81,0,1.22.41,1.22,1.22v3.53c0,.81-.41,1.22-1.22,1.22h-11.05c-.9,0-1.37-.46-1.39-1.39l-.46-24.62v-.05c0-.89.46-1.34,1.39-1.34h11.51c.81,0,1.22.41,1.22,1.22v6.02c0,.81-.58,1.22-1.73,1.22h-4.56c-.81,0-1.22.41-1.22,1.22v1.34c0,.93.46,1.39,1.39,1.39h4.05c.47,0,.7.23.7.69v2.92c0,.4-.19.63-.58.7l-4.87.81c-.62.1-.93.47-.93,1.1v1.77c0,.7.35,1.05,1.05,1.05h5.49Z"/>
    <path class="cls-1" d="M52.09,28.99l-.45-10.48-6.59-14.39c-.21-.45-.31-.81-.31-1.1,0-.56.37-.84,1.12-.84h5.09c.79,0,1.38.33,1.77,1l2.61,4.44L59.79.34c.14-.23.34-.34.6-.34h4.56c.47,0,.7.23.7.7,0,.09-.01.18-.03.27l-6.54,16.19-1.03,12.02c-.06.72-.47,1.08-1.24,1.08h-3.33c-.9,0-1.37-.43-1.41-1.29Z"/>
    <path class="cls-1" d="M86.81,23.55c0,1.82-.42,3.32-1.27,4.49-.96,1.35-2.31,2.02-4.05,2.02h-10.17c-1.78,0-3.2-.55-4.24-1.64-1.04-1.09-1.56-2.53-1.56-4.31v-15.35c0-1.77.69-3.21,2.08-4.32l.14-.09c1.38-1.11,2.96-1.66,4.73-1.66h6.72c1.82,0,3.48.42,4.99,1.27l.27.15c1.57.88,2.35,2.19,2.35,3.93v15.51ZM79.33,22.11v-9.49c0-.7-.35-1.05-1.05-1.05h-4.13c-.69,0-1.03.34-1.03,1.01v.1l.46,9.86c.03.63.35.94.94.94h.15l3.64-.33c.67-.06,1.01-.41,1.01-1.06Z"/>
    <path class="cls-1" d="M90.57,30.28c-.81,0-1.22-.41-1.22-1.22V3.81c0-.93.46-1.39,1.39-1.39h3.5c.57,0,1.05.24,1.44.72l6.07,7.57.39-7.34c.04-.79.46-1.18,1.24-1.18h2.42c.81,0,1.22.41,1.22,1.22v25.28c0,.8-.23,1.2-.7,1.2h-2.9c-.73,0-1.26-.29-1.6-.86l-5.56-9.61-1.01,9.71c-.08.77-.51,1.15-1.29,1.15h-3.4Z"/>
    <path class="cls-1" d="M129.09,21.32c0,1.77-.63,3.29-1.89,4.55l-2.71,2.71c-1.2,1.2-2.57,1.8-4.1,1.8-.15,0-.3,0-.45-.02l-9.04-.67c-.9-.07-1.36-.55-1.36-1.44V3.57c0-.93.46-1.39,1.39-1.39h9.83c1.77,0,3.29.63,4.55,1.89l1.89,1.89c1.26,1.26,1.89,2.77,1.89,4.53v10.84ZM121.05,21.61v-10.79c0-.85-.36-1.33-1.08-1.46l-2.16-.38c-.07-.01-.14-.02-.21-.02-.41,0-.62.24-.63.72l-.34,13.58v.03c0,.47.22.7.67.7.09,0,.17-.01.24-.04l2.49-.84c.69-.23,1.03-.74,1.03-1.53Z"/>
  </g>
  <g>
    <path class="cls-1" d="M13.38,68.48c-.03.79-.45,1.18-1.24,1.18h-4.41c-.81,0-1.22-.41-1.22-1.22v-16.21c0-.47-.23-.7-.7-.7h-2.5c-.81,0-1.22-.41-1.22-1.22v-7.39c0-.81.41-1.22,1.22-1.22h14.73c.81,0,1.22.41,1.22,1.22v7.98c0,.47-.39.7-1.18.7h-.03l-3.14-.03h-.02c-.43,0-.66.22-.69.67l-.82,16.25Z"/>
    <path class="cls-1" d="M34.01,60.18v-.02c0-.46-.23-.69-.7-.69h-.07l-3.89.27c-.45.03-.67.27-.67.7v7.99c0,.81-.41,1.22-1.22,1.22h-3.64c-.78,0-1.19-.39-1.25-1.18l-1.89-25.99v-.15c0-.74.4-1.12,1.2-1.13l5.4-.07h.04c.9,0,1.35.46,1.35,1.39v8.27c0,.47.22.7.67.7h.07l4.53-.26c.42-.02.65-.24.67-.65l.5-8.35c.02-.45.26-.67.7-.67h4.77c.47,0,.7.23.7.69v.02l-.41,26.18c-.01.81-.42,1.22-1.22,1.22h-4.63c-.81,0-1.22-.39-1.22-1.17v-.05l.21-8.27Z"/>
    <path class="cls-1" d="M56.73,63.7c.81,0,1.22.41,1.22,1.22v3.53c0,.81-.41,1.22-1.22,1.22h-11.05c-.9,0-1.37-.46-1.39-1.39l-.46-24.62v-.05c0-.89.46-1.34,1.39-1.34h11.51c.81,0,1.22.41,1.22,1.22v6.02c0,.81-.58,1.22-1.73,1.22h-4.56c-.81,0-1.22.41-1.22,1.22v1.34c0,.93.46,1.39,1.39,1.39h4.05c.47,0,.7.23.7.69v2.92c0,.4-.19.63-.58.7l-4.87.81c-.62.1-.93.47-.93,1.1v1.77c0,.7.35,1.05,1.05,1.05h5.49Z"/>
    <path class="cls-1" d="M91.96,61.84c0,1.74-.61,3.27-1.83,4.58l-1.3,1.41c-1.18,1.27-2.62,1.9-4.34,1.9h-.15l-11.36-.26c-1.04-.02-1.56-.55-1.56-1.58v-23.88c0-1.14.58-1.71,1.73-1.71l11.3.03c1.92,0,3.52.34,4.8,1.01,1.62.86,2.44,2.16,2.44,3.89v2.59c0,1.76-.63,3.27-1.89,4.53l-.82.82,1.06,1.01c1.28,1.22,1.92,2.72,1.92,4.49v1.15ZM83.66,61.07c.01-.09.02-.18.02-.26,0-1.01-.55-1.51-1.65-1.51h-3.81c-.34,0-.51.18-.51.53v4.46c0,.31.17.48.51.51l3.05.27c.13.01.25.02.36.02,1.12,0,1.73-.53,1.82-1.6l.21-2.44ZM83.95,51.71v-1.06c0-.69-.35-1.03-1.05-1.03h-3.81c-.32,0-.49.16-.51.48l-.27,3.21c-.01.07-.02.14-.02.21,0,.56.24.84.72.84.11,0,.25-.02.39-.05l2.92-.65c1.09-.24,1.63-.89,1.63-1.94Z"/>
    <path class="cls-1" d="M115.51,72.45c.04.09.07.19.07.31,0,.47-.23.7-.7.7h-4.87c-.24,0-.43-.1-.57-.31l-8.44-12.8-.63,7.89c-.07.9-.54,1.36-1.42,1.36h-3.05c-.93,0-1.39-.46-1.39-1.39v-24.94c0-.93.46-1.39,1.39-1.39h10.62c1.77,0,3.26.55,4.46,1.65,1.22,1.13,1.83,2.58,1.83,4.34v5.16c0,1.76-.62,3.28-1.87,4.56l-2.11,2.16,6.69,12.69ZM105.29,51.91c0-.8-.42-1.3-1.27-1.51l-1.51-.38c-.09-.02-.21-.03-.36-.03-.42,0-.65.25-.67.74l-.17,4.53v.05c0,.46.22.69.67.69.21,0,.38-.08.53-.24l1.89-2.02c.59-.64.89-1.25.89-1.82Z"/>
    <path class="cls-1" d="M128.38,63.7c.81,0,1.22.41,1.22,1.22v3.53c0,.81-.41,1.22-1.22,1.22h-11.05c-.9,0-1.37-.46-1.39-1.39l-.46-24.62v-.05c0-.89.46-1.34,1.39-1.34h11.51c.81,0,1.22.41,1.22,1.22v6.02c0,.81-.58,1.22-1.73,1.22h-4.56c-.81,0-1.22.41-1.22,1.22v1.34c0,.93.46,1.39,1.39,1.39h4.05c.47,0,.7.23.7.69v2.92c0,.4-.19.63-.58.7l-4.87.81c-.62.1-.93.47-.93,1.1v1.77c0,.7.35,1.05,1.05,1.05h5.49Z"/>
    <path class="cls-1" d="M154.43,68.02c.07.24.1.46.1.65,0,.66-.4,1-1.2,1h-5.27c-.5,0-.88-.25-1.13-.74l-1.32-2.61-6.54-.94-1.32,3.34c-.25.63-.72.94-1.41.94h-4.37c-.7,0-1.05-.29-1.05-.88,0-.23.05-.5.15-.82l8.1-25.34c.22-.66.67-1,1.36-1h5.9c.7,0,1.14.34,1.32,1.03l6.67,25.35ZM144.6,60.28l-1.73-5.47c-.1-.33-.31-.5-.63-.5-.35,0-.59.19-.7.57l-1.65,5.2c-.03.11-.05.22-.05.31,0,.35.23.55.69.6l2.88.29c.1.01.21.02.31.02.62,0,.93-.23.93-.69,0-.1-.01-.21-.03-.33Z"/>
    <path class="cls-1" d="M164.86,51.57l6.28-9.04c.35-.5.8-.75,1.34-.75h4.92c.77,0,1.15.23,1.15.69,0,.24-.11.54-.33.89l-7.75,12.75,7.94,14.07c.24.42.36.77.36,1.05,0,.42-.27.63-.82.63h-4.24c-.79,0-1.41-.31-1.87-.93l-7.72-10.38.07,7.57v.02c0,.92-.46,1.37-1.39,1.37h-5.23c-.93,0-1.39-.46-1.39-1.39v-24.67c0-.93.46-1.39,1.39-1.39h5.3c.89,0,1.37.44,1.42,1.32l.57,8.2Z"/>
  </g>
  <path class="cls-1" d="M177.05,38.19c-10.35,0-171.03-.86-174.47-.86s-3.44-1.72,0-2.58c3.44-.86,165.64,1.29,168.21,1.47,2.62.18,8.84,1.97,6.26,1.97Z"/>
  <path class="cls-1" d="M138.37,35.94c4.99-3.64,9.43-12.17,14.39-15.54,6.07-4.12,10.35-2.28,11.32-1.73,1.51.87.28,1.28-2.43,2.67-3.36,1.72-9.51,13.76.28,14.72l-23.55-.12Z"/>
</svg>